<svg width="512" height="512" viewBox="0 0 512 512" fill="none" xmlns="http://www.w3.org/2000/svg">
<rect width="512" height="512" fill="black"/>
<path d="M169.878 268.061H195.347V282.755C195.347 291.898 197.741 301.259 202.531 310.837C207.32 320.415 213.524 328.361 221.143 334.673C228.98 340.986 236.925 344.143 244.98 344.143C251.728 344.143 257.279 342.184 261.633 338.265C266.204 334.347 269.578 328.687 271.755 321.286C273.932 313.667 275.02 303.871 275.02 291.898V164.224H223.755V138.429H354.694V164.224H324V287C324 304.85 320.735 320.197 314.204 333.041C307.673 345.667 298.857 355.354 287.755 362.102C276.653 368.633 264.354 371.898 250.857 371.898C244.109 371.898 237.905 371.136 232.245 369.612C226.803 368.088 221.034 365.803 214.939 362.755C211.891 361.667 208.735 360.361 205.469 358.837C202.204 357.313 198.939 355.898 195.673 354.592V380.714H169.878V268.061Z" fill="white"/>
<path d="M275 228L326 263L326 309L275 257L275 228Z" fill="black"/>
</svg>
