<?xml version="1.0" encoding="UTF-8"?>
<svg version="1.1" xmlns="http://www.w3.org/2000/svg" width="5120" height="5120">
<path d="M0 0 C1689.6 0 3379.2 0 5120 0 C5120 1689.6 5120 3379.2 5120 5120 C3430.4 5120 1740.8 5120 0 5120 C0 3430.4 0 1740.8 0 0 Z " fill="#000000" transform="translate(0,0)"/>
<path d="M0 0 C3.71701948 1.72840376 5.71163752 3.68495555 8.421875 6.796875 C13.74455097 12.76902818 19.34724099 18.43484841 25.015625 24.078125 C25.92139282 24.9805896 26.82716064 25.8830542 27.76037598 26.81286621 C30.58830536 29.62720631 33.4186264 32.43912612 36.25 35.25 C40.00832163 38.98125815 43.76289022 42.71624554 47.515625 46.453125 C48.36368713 47.29288879 49.21174927 48.13265259 50.08551025 48.99786377 C53.66396585 52.56163265 57.17276249 56.13156821 60.46386719 59.96386719 C64.74135306 64.93801502 69.40461984 69.5098603 74.0625 74.125 C75.02251375 75.0805937 75.98222453 76.03649184 76.94165039 76.99267578 C79.95826369 79.9979755 82.97881596 82.99929612 86 86 C89.50670151 89.48293011 93.01167466 92.96756502 96.51242065 96.45648193 C97.8988534 97.83653133 99.28837298 99.21347744 100.67797852 100.59033203 C105.01946951 104.91510459 109.18212945 109.30105868 113.17358398 113.94873047 C116.94790375 118.18771385 121.03214992 122.1316322 125.0625 126.125 C126.02251375 127.0805937 126.98222453 128.03649184 127.94165039 128.99267578 C130.95826369 131.9979755 133.97881596 134.99929612 137 138 C140.50670151 141.48293011 144.01167466 144.96756502 147.51242065 148.45648193 C148.8988534 149.83653133 150.28837298 151.21347744 151.67797852 152.59033203 C156.01946951 156.91510459 160.18212945 161.30105868 164.17358398 165.94873047 C167.94790375 170.18771385 172.03214992 174.1316322 176.0625 178.125 C177.02251375 179.0805937 177.98222453 180.03649184 178.94165039 180.99267578 C181.95826369 183.9979755 184.97881596 186.99929612 188 190 C191.50670151 193.48293011 195.01167466 196.96756502 198.51242065 200.45648193 C199.8988534 201.83653133 201.28837298 203.21347744 202.67797852 204.59033203 C207.01946951 208.91510459 211.18212945 213.30105868 215.17358398 217.94873047 C218.94790375 222.18771385 223.03214992 226.1316322 227.0625 230.125 C228.02251375 231.0805937 228.98222453 232.03649184 229.94165039 232.99267578 C232.95826369 235.9979755 235.97881596 238.99929612 239 242 C242.50670151 245.48293011 246.01167466 248.96756502 249.51242065 252.45648193 C250.8988534 253.83653133 252.28837298 255.21347744 253.67797852 256.59033203 C258.01946951 260.91510459 262.18212945 265.30105868 266.17358398 269.94873047 C269.94790375 274.18771385 274.03214992 278.1316322 278.0625 282.125 C279.02251375 283.0805937 279.98222453 284.03649184 280.94165039 284.99267578 C283.95826369 287.9979755 286.97881596 290.99929612 290 294 C293.50670151 297.48293011 297.01167466 300.96756502 300.51242065 304.45648193 C301.8988534 305.83653133 303.28837298 307.21347744 304.67797852 308.59033203 C309.01946951 312.91510459 313.18212945 317.30105868 317.17358398 321.94873047 C320.94790375 326.18771385 325.03214992 330.1316322 329.0625 334.125 C330.02251375 335.0805937 330.98222453 336.03649184 331.94165039 336.99267578 C334.95826369 339.9979755 337.97881596 342.99929612 341 346 C344.50670151 349.48293011 348.01167466 352.96756502 351.51242065 356.45648193 C352.8988534 357.83653133 354.28837298 359.21347744 355.67797852 360.59033203 C360.01946951 364.91510459 364.18212945 369.30105868 368.17358398 373.94873047 C371.94790375 378.18771385 376.03214992 382.1316322 380.0625 386.125 C381.02251375 387.0805937 381.98222453 388.03649184 382.94165039 388.99267578 C385.95826369 391.9979755 388.97881596 394.99929612 392 398 C395.50670151 401.48293011 399.01167466 404.96756502 402.51242065 408.45648193 C403.8988534 409.83653133 405.28837298 411.21347744 406.67797852 412.59033203 C411.01946951 416.91510459 415.18212945 421.30105868 419.17358398 425.94873047 C422.94790375 430.18771385 427.03214992 434.1316322 431.0625 438.125 C432.02251375 439.0805937 432.98222453 440.03649184 433.94165039 440.99267578 C436.95826369 443.9979755 439.97881596 446.99929612 443 450 C446.50670151 453.48293011 450.01167466 456.96756502 453.51242065 460.45648193 C454.8988534 461.83653133 456.28837298 463.21347744 457.67797852 464.59033203 C462.16346058 469.05854117 466.49693915 473.57451022 470.57836914 478.41674805 C472.07187953 480.17498982 472.07187953 480.17498982 474.5 481.9375 C476.33032453 484.45419623 476.08019588 485.08503212 475.68017578 488.08374023 C475.57465393 488.89092499 475.46913208 489.69810974 475.3604126 490.52975464 C474.81506811 494.26751161 474.24258635 497.99739776 473.6171875 501.72265625 C473.48259628 502.53228317 473.34800507 503.3419101 473.20933533 504.17607117 C463.25930247 563.65073472 448.45727406 622.92867813 426 679 C425.25988512 680.87425853 424.51977317 682.74851821 423.77972412 684.62280273 C409.15079898 721.59308611 392.17241663 757.71329568 372 792 C371.48985352 792.87043945 370.97970703 793.74087891 370.45410156 794.63769531 C363.60429712 806.29148435 356.43748714 817.71347098 349 829 C348.32582031 830.03125 347.65164063 831.0625 346.95703125 832.125 C333.2528372 852.92146768 318.54319237 873.08250928 302.53515625 892.16064453 C300.39057873 894.73018128 298.29073076 897.33402164 296.1875 899.9375 C292.62034029 904.30545067 288.90216449 908.51051042 285.10546875 912.6796875 C283.27082315 914.70154184 281.47231214 916.74678522 279.6875 918.8125 C270.83363135 928.94944067 261.53038798 938.63476114 251.99853516 948.13183594 C250.23351456 949.8914348 248.47398867 951.65640397 246.71484375 953.421875 C240.97665532 959.16343484 235.18481703 964.73620882 229 970 C227.22429779 971.61967817 225.45291693 973.24411718 223.6875 974.875 C218.28529859 979.79618347 212.68770102 984.41501653 207 989 C205.76994984 990.00934094 204.5408379 991.01982598 203.3125 992.03125 C165.85819684 1022.80938045 125.15384482 1048.06704603 82 1070 C81.05366699 1070.48194824 80.10733398 1070.96389648 79.13232422 1071.46044922 C40.21980906 1091.11303298 -1.19753054 1105.90068447 -43.19114685 1117.39653015 C-47.47967989 1118.57072616 -51.74675697 1119.80577602 -56.01171875 1121.0625 C-63.62135628 1123.24315936 -71.31632911 1124.89844444 -79.0625 1126.5 C-80.52509464 1126.80552268 -81.9876594 1127.11118849 -83.45019531 1127.41699219 C-87.63139285 1128.28828532 -91.81518777 1129.14623359 -96 1130 C-97.06395996 1130.21720703 -98.12791992 1130.43441406 -99.22412109 1130.65820312 C-112.08784498 1133.25871609 -124.98690824 1135.3083441 -138 1137 C-138.90588867 1137.1222998 -139.81177734 1137.24459961 -140.74511719 1137.37060547 C-195.66183051 1144.71001328 -251.80093674 1145.23573421 -307 1141 C-307.69812805 1140.94672546 -308.3962561 1140.89345093 -309.11553955 1140.83856201 C-326.2150313 1139.51392211 -343.12968089 1137.44361578 -360.02783203 1134.50732422 C-362.99287686 1134.00121586 -365.96145585 1133.52889107 -368.93359375 1133.06640625 C-384.10834104 1130.68248066 -399.05627286 1127.54724836 -414 1124 C-415.60536621 1123.62367432 -415.60536621 1123.62367432 -417.24316406 1123.23974609 C-436.85283751 1118.58999888 -455.8501207 1112.32059322 -474.87591553 1105.73492432 C-476.89904927 1105.03492853 -478.92326091 1104.33814288 -480.94775391 1103.64208984 C-496.21128636 1098.37432193 -511.17989644 1092.61185061 -526.02490234 1086.26318359 C-529.1089381 1084.95374645 -532.20280568 1083.67061689 -535.30078125 1082.39453125 C-536.34911133 1081.96205078 -537.39744141 1081.52957031 -538.47753906 1081.08398438 C-540.44093593 1080.27475908 -542.40505148 1079.46727369 -544.37011719 1078.66210938 C-555.81289751 1073.92297558 -566.9439011 1068.54615653 -578.04270935 1063.06062317 C-591.02949979 1056.64515548 -603.85529798 1050.56311433 -617.57519531 1045.86328125 C-646.95559392 1035.40324405 -675.48031688 1022.0783052 -703.74609375 1008.94921875 C-732.83862783 995.44676495 -762.30701862 983.14712875 -792 971 C-792.33 1056.8 -792.66 1142.6 -793 1231 C-878.14 1231 -963.28 1231 -1051 1231 C-1051 859.42 -1051 487.84 -1051 105 C-966.85 105 -882.7 105 -796 105 C-795.625 191.1875 -795.625 191.1875 -795.52197266 218.23120117 C-795.48198822 226.34983697 -795.48198822 226.34983697 -795.43954468 234.46846008 C-795.42095258 238.03718208 -795.40745062 241.60588102 -795.39730835 245.17463684 C-795.31189143 273.9296912 -794.60248302 302.33589469 -790.1875 330.8125 C-789.92194917 332.57477506 -789.65648842 334.3370637 -789.39111328 336.09936523 C-787.39648502 349.16956025 -785.03810305 362.12866772 -782 375 C-781.83290527 375.72219727 -781.66581055 376.44439453 -781.49365234 377.18847656 C-777.66577007 393.62471273 -772.84487177 409.87425286 -767.6640625 425.93164062 C-767.21352812 427.33492272 -766.76838815 428.73994599 -766.328125 430.14648438 C-757.26811186 459.06302633 -745.52931801 487.03585217 -732.66748047 514.44335938 C-731.18389949 517.60775288 -729.71615129 520.77883699 -728.25390625 523.953125 C-722.84767432 535.60262124 -716.87091594 546.88768662 -710.61376953 558.10058594 C-708.94755611 561.09422446 -707.29909533 564.09718003 -705.65234375 567.1015625 C-685.27995355 604.09627335 -661.65409594 639.23767374 -635 672 C-633.9790625 673.26457031 -633.9790625 673.26457031 -632.9375 674.5546875 C-623.49495289 686.18925447 -613.70705303 697.46160607 -603.47802734 708.40869141 C-602.03289781 709.96458079 -600.6021344 711.53236533 -599.17578125 713.10546875 C-593.35122938 719.51467451 -587.36309469 725.73994688 -581.25 731.875 C-580.55302002 732.57657227 -579.85604004 733.27814453 -579.13793945 734.00097656 C-575.18947608 737.93774009 -571.13751732 741.68844647 -566.91552734 745.32958984 C-563.93126591 747.93197536 -561.06761003 750.65866012 -558.1875 753.375 C-552.32551937 758.85384464 -546.28110507 764.00405328 -540 769 C-538.87145458 769.91941877 -537.74390462 770.84006036 -536.6171875 771.76171875 C-514.27043088 789.96728265 -490.24283977 806.08883661 -465 820 C-464.14567383 820.47501953 -463.29134766 820.95003906 -462.41113281 821.43945312 C-412.52928575 848.98424899 -357.93331391 864.18960237 -300.99755859 864.18530273 C-297.77037292 864.18748622 -294.54353168 864.20569564 -291.31640625 864.22460938 C-274.67245871 864.27114276 -258.70410738 863.0651021 -242.375 859.6875 C-240.77664307 859.36048096 -240.77664307 859.36048096 -239.14599609 859.02685547 C-230.54145848 857.21420791 -222.29154418 854.92376279 -214 852 C-212.93966553 851.64131836 -212.93966553 851.64131836 -211.85791016 851.27539062 C-167.021059 836.09894068 -126.62403296 806.9035222 -98 769 C-97.51031738 768.37029297 -97.02063477 767.74058594 -96.51611328 767.09179688 C-72.67334683 736.40125706 -54.62267321 701.2368497 -42.1953125 664.46875 C-41.20278064 661.58846146 -40.1242266 658.80329117 -38.9375 656 C-37.23742216 651.84013523 -35.91895915 647.59461872 -34.66015625 643.28515625 C-34.44238525 642.54113052 -34.22461426 641.7971048 -34.00024414 641.03053284 C-31.64036881 632.88121426 -29.54079585 624.67162518 -27.5 616.4375 C-27.30612701 615.658302 -27.11225403 614.879104 -26.9125061 614.07629395 C-23.61116799 600.78151932 -20.5322093 587.46542394 -18 574 C-17.83725586 573.14970215 -17.67451172 572.2994043 -17.50683594 571.42333984 C-1.74812653 487.71116532 -0.5425506 402.25213785 -0.49584161 317.38390636 C-0.4891892 306.35063775 -0.4655526 295.31742161 -0.44127061 284.28418006 C-0.39842508 264.62240633 -0.36822041 244.96063568 -0.34643555 225.29882812 C-0.32529701 206.24575284 -0.29791241 187.19270267 -0.26245117 168.13964844 C-0.26025235 166.95710117 -0.25805352 165.77455391 -0.25578807 164.55617188 C-0.24471524 158.62125591 -0.23352303 152.68634018 -0.22227156 146.75142455 C-0.12968736 97.83430529 -0.05781473 48.9171719 0 0 Z " fill="#FEFEFE" transform="translate(2750,2571)"/>
<path d="M0 0 C5.58907052 0.61886854 10.9657814 1.56467062 16.4375 2.84765625 C17.20304199 3.02380966 17.96858398 3.19996307 18.75732422 3.38145447 C21.17242992 3.93807051 23.58621574 4.50018428 26 5.0625 C27.64965501 5.44372552 29.2993939 5.82458829 30.94921875 6.20507812 C34.96712683 7.1325315 38.98386184 8.0649134 43 9 C41.86743055 12.59405027 40.66829217 15.88826778 38.8125 19.16796875 C38.14927734 20.35712891 38.14927734 20.35712891 37.47265625 21.5703125 C36.98667969 22.43398438 36.50070312 23.29765625 36 24.1875 C30.45393647 34.18701105 25.2004135 44.31789085 20 54.5 C14.67759565 64.91328632 9.28492074 75.26535493 3.6171875 85.49609375 C-1.10250566 94.07149252 -5.5446428 102.785468 -10 111.5 C-15.32356717 121.91272213 -20.71505227 132.26530622 -26.3828125 142.49609375 C-31.10250566 151.07149252 -35.5446428 159.785468 -40 168.5 C-45.32356717 178.91272213 -50.71505227 189.26530622 -56.3828125 199.49609375 C-61.10250566 208.07149252 -65.5446428 216.785468 -70 225.5 C-75.32356717 235.91272213 -80.71505227 246.26530622 -86.3828125 256.49609375 C-91.10250618 265.07149347 -95.54462403 273.7854767 -100 282.5 C-105.3473919 292.95912249 -110.76271952 303.35882346 -116.453125 313.63671875 C-120.96894717 321.83943136 -125.23310686 330.1661404 -129.5 338.5 C-134.20400566 347.68760358 -138.9373201 356.8437762 -143.9375 365.875 C-149.58254835 376.07403693 -154.880457 386.44235152 -160.18624878 396.82025146 C-165.11557511 406.45670286 -170.13418241 416.02307085 -175.38061523 425.49169922 C-180.53858443 434.86228917 -185.37063688 444.39919903 -190.23678589 453.92333984 C-195.30620324 463.84062607 -200.45152924 473.69737386 -205.91625977 483.40478516 C-207.51414266 486.24796796 -208.96572129 488.89716387 -210 492 C-149.28 492 -88.56 492 -26 492 C-26 577.14 -26 662.28 -26 750 C-47.99914063 749.90976563 -69.99828125 749.81953125 -92.6640625 749.7265625 C-106.59118621 749.7006371 -120.51818657 749.67816446 -134.4453125 749.671875 C-141.7620452 749.66838879 -149.07877658 749.66402767 -156.39550781 749.65820312 C-157.31248837 749.65750958 -158.22946893 749.65681603 -159.17423677 749.65610147 C-173.96114135 749.64364296 -188.74744627 749.58183233 -203.53412111 749.50166626 C-218.719417 749.42044229 -233.90414225 749.39254737 -249.08964384 749.41372812 C-258.45370867 749.42512113 -267.81575896 749.39536479 -277.17946981 749.3122649 C-283.60840824 749.2592029 -290.03607352 749.25813842 -296.46510662 749.29715051 C-300.17038434 749.31812391 -303.87199295 749.31695434 -307.57687187 749.25374794 C-324.92606285 748.42883801 -324.92606285 748.42883801 -339.82929075 755.91516817 C-342.03657958 758.27910823 -344.01081735 760.71243709 -345.85866046 763.36587977 C-347.34852934 765.49900913 -349.05845189 767.39441935 -350.8125 769.3125 C-351.32425781 769.91707031 -351.83601563 770.52164063 -352.36328125 771.14453125 C-355.03294135 774.17099557 -357.94460678 776.95209943 -360.81640625 779.78515625 C-362.77974671 781.77659461 -364.62079669 783.81302578 -366.4375 785.9375 C-369.15619248 789.1103592 -372.02751675 792.06338382 -375 795 C-377.95183025 797.91626603 -380.80388859 800.84605835 -383.5 804 C-386.98332542 808.0748335 -390.77818708 811.79292992 -394.58984375 815.55859375 C-397.26854532 818.27202727 -399.74608118 821.10777023 -402.22265625 824.00390625 C-404.95099285 827.06803813 -407.89667908 829.90481832 -410.81640625 832.78515625 C-412.77974671 834.77659461 -414.62079669 836.81302578 -416.4375 838.9375 C-419.15619248 842.1103592 -422.02751675 845.06338382 -425 848 C-427.95183025 850.91626603 -430.80388859 853.84605835 -433.5 857 C-436.98452107 861.07623219 -440.78081981 864.79550873 -444.59375 868.5625 C-446.65449345 870.65000635 -448.59515626 872.77169223 -450.5 875 C-453.98332542 879.0748335 -457.77818708 882.79292992 -461.58984375 886.55859375 C-464.26854532 889.27202727 -466.74608118 892.10777023 -469.22265625 895.00390625 C-471.95099285 898.06803813 -474.89667908 900.90481832 -477.81640625 903.78515625 C-479.77974671 905.77659461 -481.62079669 907.81302578 -483.4375 909.9375 C-486.15619248 913.1103592 -489.02751675 916.06338382 -492 919 C-494.95183025 921.91626603 -497.80388859 924.84605835 -500.5 928 C-503.98332542 932.0748335 -507.77818708 935.79292992 -511.58984375 939.55859375 C-514.26854532 942.27202727 -516.74608118 945.10777023 -519.22265625 948.00390625 C-521.94855159 951.0652964 -524.89141358 953.89965164 -527.80859375 956.77734375 C-530.42079106 959.42679165 -532.84095714 962.19460647 -535.21875 965.0546875 C-537 967 -537 967 -539.28125 968.8203125 C-541.67851545 970.78245785 -543.33341559 972.3830099 -545 975 C-545.07809246 977.90210388 -545.07809246 977.90210388 -544.37890625 980.9921875 C-544.16387451 982.14710693 -543.94884277 983.30202637 -543.72729492 984.49194336 C-543.4872876 985.64960205 -543.24728027 986.80726074 -543 988 C-542.79802002 989.01263916 -542.59604004 990.02527832 -542.38793945 991.06860352 C-541.74475076 994.1981752 -541.06419086 997.3177472 -540.375 1000.4375 C-539.84033019 1002.89305171 -539.30652463 1005.34879171 -538.7734375 1007.8046875 C-538.63258728 1008.4519429 -538.49173706 1009.0991983 -538.34661865 1009.7660675 C-536.69483856 1017.37175773 -535.1074755 1024.99089011 -533.51364136 1032.60888672 C-530.34547605 1047.74289485 -527.06716478 1062.84709329 -523.68359375 1077.93457031 C-522.54139378 1083.0565213 -521.42562404 1088.1841634 -520.3125 1093.3125 C-520.12212158 1094.18898193 -519.93174316 1095.06546387 -519.7355957 1095.96850586 C-519.15529248 1098.64529049 -518.57764245 1101.32264001 -518 1104 C-517.76498779 1105.08240967 -517.52997559 1106.16481934 -517.2878418 1107.2800293 C-515.49734643 1115.56576474 -513.82347929 1123.87007037 -512.1875 1132.1875 C-509.97962861 1143.3325899 -507.60993732 1154.43268774 -505.11010742 1165.51635742 C-503.47583674 1172.78437752 -501.9625858 1180.06541718 -500.53637695 1187.37670898 C-499.16373871 1194.34090166 -497.62136963 1201.26288855 -496.0625 1208.1875 C-494.11208934 1216.85464117 -492.2656489 1225.53094692 -490.5625 1234.25 C-488.54373156 1244.57738435 -486.25970445 1254.8344401 -483.91052246 1265.090271 C-481.98119563 1273.5209925 -480.19074501 1281.93958632 -478.67578125 1290.453125 C-477.64977954 1295.83815133 -476.35878511 1301.15099117 -475.0625 1306.4765625 C-472.47048011 1317.31488136 -470.33800819 1328.25514336 -468.1875 1339.1875 C-466.07229599 1349.87958405 -463.80260643 1360.52783761 -461.39575195 1371.15844727 C-458.71887647 1383.07326936 -456.30064707 1395.04015239 -453.89111328 1407.01147461 C-452.20564377 1415.35100285 -450.41554482 1423.65027296 -448.43861389 1431.92573547 C-445.72757478 1443.28624458 -443.44129739 1454.72904128 -441.1875 1466.1875 C-438.97962861 1477.3325899 -436.60993732 1488.43268774 -434.11010742 1499.51635742 C-432.47583674 1506.78437752 -430.9625858 1514.06541718 -429.53637695 1521.37670898 C-428.16373871 1528.34090166 -426.62136963 1535.26288855 -425.0625 1542.1875 C-423.11208934 1550.85464117 -421.2656489 1559.53094692 -419.5625 1568.25 C-417.54373156 1578.57738435 -415.25970445 1588.8344401 -412.91052246 1599.090271 C-410.98119563 1607.5209925 -409.19074501 1615.93958632 -407.67578125 1624.453125 C-406.62015962 1629.99361311 -405.27913038 1635.46160802 -403.96484375 1640.9453125 C-402.70992853 1646.18779736 -401.56231959 1651.45000887 -400.47119141 1656.72900391 C-400.10694315 1658.48456727 -399.73863949 1660.23928949 -399.36865234 1661.99365234 C-398.65414456 1665.3899294 -397.95115194 1668.78844257 -397.25 1672.1875 C-397.01482666 1673.29996094 -396.77965332 1674.41242188 -396.53735352 1675.55859375 C-396.32393311 1676.6053125 -396.1105127 1677.65203125 -395.890625 1678.73046875 C-395.69500977 1679.67301514 -395.49939453 1680.61556152 -395.29785156 1681.58666992 C-395 1684 -395 1684 -396 1687 C-396.804375 1686.3915625 -397.60875 1685.783125 -398.4375 1685.15625 C-407.49355365 1678.3800328 -416.80594354 1672.04716568 -426.2578125 1665.8359375 C-432.02485411 1662.03458514 -437.64770318 1658.09558151 -443.21386719 1654.0065918 C-448.04575981 1650.52662987 -453.02661139 1647.27297554 -458 1644 C-464.85716729 1639.48731407 -471.59708916 1634.87744137 -478.21337891 1630.01806641 C-483.12632627 1626.46011802 -488.16102836 1623.08219293 -493.1875 1619.6875 C-495.39897784 1618.1895989 -497.60958337 1616.69041206 -499.8203125 1615.19140625 C-500.8815332 1614.47227051 -501.94275391 1613.75313477 -503.03613281 1613.01220703 C-506.88795728 1610.39715454 -510.72831079 1607.76582098 -514.5625 1605.125 C-515.18946777 1604.69324463 -515.81643555 1604.26148926 -516.46240234 1603.81665039 C-517.69447235 1602.96780865 -518.92640861 1602.11877272 -520.15820312 1601.26953125 C-523.37473507 1599.05240955 -526.59352145 1596.83856749 -529.8125 1594.625 C-530.46549072 1594.17592285 -531.11848145 1593.7268457 -531.79125977 1593.26416016 C-537.02223104 1589.66838376 -542.26033437 1586.08309193 -547.5 1582.5 C-556.65716854 1576.23796364 -565.79975501 1569.9549293 -574.93847656 1563.66601562 C-582.78511438 1558.26677212 -590.63776368 1552.87651016 -598.5 1547.5 C-607.65716854 1541.23796364 -616.79975501 1534.9549293 -625.93847656 1528.66601562 C-633.78511438 1523.26677212 -641.63776368 1517.87651016 -649.5 1512.5 C-658.65716854 1506.23796364 -667.79975501 1499.9549293 -676.93847656 1493.66601562 C-684.78511438 1488.26677212 -692.63776368 1482.87651016 -700.5 1477.5 C-709.65716854 1471.23796364 -718.79975501 1464.9549293 -727.93847656 1458.66601562 C-735.78511438 1453.26677212 -743.63776368 1447.87651016 -751.5 1442.5 C-760.65716854 1436.23796364 -769.79975501 1429.9549293 -778.93847656 1423.66601562 C-780.89634762 1422.31881153 -782.85440935 1420.97188491 -784.8125 1419.625 C-785.46138184 1419.17842041 -786.11026367 1418.73184082 -786.77880859 1418.27172852 C-790.46135369 1415.73902468 -794.14953728 1413.21487824 -797.84375 1410.69921875 C-798.67028076 1410.1357373 -799.49681152 1409.57225586 -800.34838867 1408.99169922 C-801.92829327 1407.91505364 -803.50910491 1406.83973717 -805.09106445 1405.76611328 C-806.56069716 1404.76415648 -808.01441685 1403.73836167 -809.44925898 1402.68718815 C-811.95362924 1400.91569358 -811.95362924 1400.91569358 -814.81560165 1399.82577419 C-818.55301863 1397.96270916 -820.50320035 1396.38481647 -823 1393 C-825.2316175 1384.87929197 -824.43369447 1375.96202572 -824.32279968 1367.62719727 C-824.327596 1364.96790946 -824.33676123 1362.30896314 -824.35128051 1359.64974403 C-824.37406698 1353.86402133 -824.35605764 1348.0795441 -824.31126022 1342.29396629 C-824.24483561 1333.69132251 -824.24156948 1325.08946295 -824.2512221 1316.48660947 C-824.26567157 1302.01522885 -824.2289337 1287.54440092 -824.16303062 1273.07318115 C-824.09794503 1258.74474351 -824.05560571 1244.41653605 -824.04364967 1230.08795166 C-824.04289354 1229.1970806 -824.0421374 1228.30620954 -824.04135835 1227.38834238 C-824.03763669 1222.86406538 -824.03432147 1218.33978818 -824.03116272 1213.81551075 C-824.00805761 1181.76926584 -823.93394537 1149.72332162 -823.82983398 1117.67724609 C-823.72880745 1086.544775 -823.65107273 1055.41238685 -823.60424805 1024.27978516 C-823.60127098 1022.32209782 -823.59829324 1020.36441048 -823.5953148 1018.40672314 C-823.57123834 1002.49971509 -823.54876998 986.59270478 -823.52669149 970.68569385 C-823.42342978 897.12351099 -823.20265609 823.56211277 -823 750 C-992.29 750 -1161.58 750 -1336 750 C-1336 664.86 -1336 579.72 -1336 492 C-1062.76 492 -789.52 492 -508 492 C-515.04925385 477.89770799 -515.04925385 477.89770799 -522.25 463.875 C-522.8066333 462.80427246 -523.3632666 461.73354492 -523.93676758 460.63037109 C-527.44069194 453.91637748 -531.02891529 447.25571072 -534.6875 440.625 C-540.40640748 430.25536064 -545.7950089 419.7246096 -551.18515015 409.1819458 C-555.68142282 400.39205985 -560.21496087 391.63740114 -565 383 C-570.62655303 372.84359496 -575.90181456 362.51591581 -581.18652344 352.17919922 C-585.68233946 343.39023216 -590.21545829 334.63650326 -595 326 C-600.62655303 315.84359496 -605.90181456 305.51591581 -611.18652344 295.17919922 C-615.68233946 286.39023216 -620.21545829 277.63650326 -625 269 C-630.62655303 258.84359496 -635.90181456 248.51591581 -641.18652344 238.17919922 C-645.68233946 229.39023216 -650.21545829 220.63650326 -655 212 C-660.62655303 201.84359496 -665.90181456 191.51591581 -671.18652344 181.17919922 C-676.11274941 171.54881453 -681.12589082 161.98704794 -686.37182617 152.52587891 C-692.01987202 142.26993584 -697.29598566 131.8178479 -702.59570312 121.37890625 C-706.43425768 113.84166052 -710.37289739 106.4555404 -714.77416992 99.22705078 C-716 97 -716 97 -716 95 C-711.00198934 93.87553357 -706.00319515 92.75464119 -701.00366211 91.63696289 C-699.30520323 91.25674467 -697.60695732 90.87557377 -695.90893555 90.4934082 C-693.45938446 89.94227717 -691.00907206 89.39464793 -688.55859375 88.84765625 C-687.80726669 88.6778273 -687.05593964 88.50799835 -686.28184509 88.33302307 C-681.8674598 87.35179137 -677.48502707 86.58163175 -673 86 C-672.68109802 86.484617 -672.36219604 86.96923401 -672.03363037 87.46853638 C-656.7575498 110.68096797 -641.46482708 133.88101058 -626.01831055 156.98046875 C-624.09326476 159.86046951 -622.17103654 162.74232381 -620.25 165.625 C-617.40168712 169.89904066 -614.55022958 174.17096265 -611.69700623 178.44172668 C-597.31616861 199.96926877 -582.99870704 221.53708446 -568.77075195 243.16601562 C-562.57279612 252.58720451 -556.35652785 261.99515184 -550.08908081 271.37026978 C-548.44629895 273.82857334 -546.80730749 276.28939947 -545.16796875 278.75 C-542.34771023 282.98073988 -539.52440203 287.20943164 -536.69989014 291.43733215 C-522.31840264 312.96654895 -507.99967154 334.53561825 -493.77075195 356.16601562 C-487.57279612 365.58720451 -481.35652785 374.99515184 -475.08908081 384.37026978 C-473.44629895 386.82857334 -471.80730749 389.28939947 -470.16796875 391.75 C-467.34773683 395.98069997 -464.52445843 400.20935396 -461.69996643 404.43721008 C-458.90312238 408.62412476 -456.10754601 412.81188484 -453.3125 417 C-452.71460663 417.89586823 -452.11671326 418.79173645 -451.5007019 419.7147522 C-440.3766228 436.38847505 -429.33324845 453.11461027 -418.33129883 469.86914062 C-417.74270081 470.76441971 -417.15410278 471.65969879 -416.54766846 472.58210754 C-415.45488624 474.24432099 -414.36320054 475.90725612 -413.27288818 477.5710907 C-412.53658173 478.69061882 -412.53658173 478.69061882 -411.78540039 479.83276367 C-411.3657753 480.47219406 -410.94615021 481.11162445 -410.5138092 481.77043152 C-409.76447365 482.87406792 -409.76447365 482.87406792 -409 484 C-408.68647929 484.58935931 -408.37295858 485.17871862 -408.04993725 485.78593731 C-406.39823672 488.60030059 -405.18105355 490.62190086 -401.98403072 491.6453867 C-399.44454199 491.90350155 -396.98862995 491.93140855 -394.4362793 491.88647461 C-393.47969925 491.89725037 -392.5231192 491.90802612 -391.53755188 491.91912842 C-388.3823213 491.94649139 -385.22945657 491.92465099 -382.07421875 491.90234375 C-379.88416562 491.91172772 -377.69412367 491.92418482 -375.50410461 491.93959045 C-369.74501542 491.97184752 -363.98672166 491.96236225 -358.2276001 491.94421387 C-352.34891009 491.93306482 -346.47042476 491.96135084 -340.59179688 491.98632812 C-329.06105588 492.02950323 -317.53077074 492.02858605 -306 492 C-305.70104828 491.22971466 -305.40209656 490.45942932 -305.09408569 489.665802 C-303.88868108 486.72876511 -302.39796365 484.19107801 -300.7265625 481.4921875 C-300.07292725 480.43306152 -299.41929199 479.37393555 -298.74584961 478.28271484 C-298.0390484 477.14671739 -297.33209496 476.01081463 -296.625 474.875 C-295.89502095 473.69627658 -295.16528708 472.51740129 -294.43579102 471.33837891 C-289.35354617 463.13445795 -284.21533475 454.96623661 -279.046875 446.81640625 C-275.57011986 441.32986676 -272.12804691 435.82179452 -268.6875 430.3125 C-268.05706787 429.30300293 -267.42663574 428.29350586 -266.77709961 427.25341797 C-265.4923985 425.19587228 -264.20781255 423.13825468 -262.92333984 421.08056641 C-259.78410777 416.05253513 -256.64192849 411.02634659 -253.5 406 C-252.24998536 404.00000915 -250.99998538 402.00000914 -249.75 400 C-125.99999966 201.99999946 -125.99999966 201.99999946 -30.37280273 48.99658203 C-29.13000977 47.00804849 -27.8873329 45.01944239 -26.64477539 43.03076172 C-23.41048386 37.85470635 -20.17383871 32.6801434 -16.93359375 27.5078125 C-16.26457031 26.43917969 -15.59554687 25.37054687 -14.90625 24.26953125 C-13.63747513 22.24301583 -12.36799768 20.21694003 -11.09765625 18.19140625 C-7.32818046 12.1686216 -3.6324717 6.10640319 0 0 Z " fill="#FEFEFE" transform="translate(3573,887)"/>
<path d="M0 0 C12.34235834 10.55678874 22.23686897 22.701395 30.4453125 36.69140625 C30.82429688 37.33029785 31.20328125 37.96918945 31.59375 38.62744141 C40.86903208 54.48179312 46.50785105 71.59212454 49.4453125 89.69140625 C49.61659668 90.62654053 49.78788086 91.5616748 49.96435547 92.52514648 C55.47506515 128.80351897 44.24939161 167.69844247 23.00390625 197.125 C14.68503548 208.33071018 5.54913919 218.20670252 -5.5546875 226.69140625 C-6.40546875 227.35785156 -7.25625 228.02429687 -8.1328125 228.7109375 C-23.29675341 240.22009625 -40.48208672 248.2867346 -58.7421875 253.50390625 C-59.41749512 253.69887695 -60.09280273 253.89384766 -60.78857422 254.09472656 C-85.52866357 260.7476223 -112.01046722 259.15162591 -136.5546875 252.69140625 C-137.28671387 252.50449219 -138.01874023 252.31757812 -138.77294922 252.125 C-158.57661016 246.89439256 -177.18555961 234.89681077 -192.5546875 221.69140625 C-193.41191406 220.96953125 -194.26914063 220.24765625 -195.15234375 219.50390625 C-201.38290859 214.11114534 -206.54522325 208.22192601 -211.5546875 201.69140625 C-212.22242187 200.83933594 -212.89015625 199.98726562 -213.578125 199.109375 C-225.08324419 183.94353607 -233.15015472 166.76352098 -238.3671875 148.50390625 C-238.5621582 147.82859863 -238.75712891 147.15329102 -238.95800781 146.45751953 C-249.13858639 108.59905405 -241.21306954 68.64597084 -222.05761719 35.18359375 C-218.09324398 28.6097923 -213.47221639 22.57473191 -208.5546875 16.69140625 C-208.09594238 16.14162109 -207.63719727 15.59183594 -207.16455078 15.02539062 C-186.72001048 -9.09283553 -159.0895998 -24.77970242 -128.5546875 -32.30859375 C-127.86552246 -32.48503418 -127.17635742 -32.66147461 -126.46630859 -32.84326172 C-82.42436527 -43.72700426 -33.96983625 -28.59270136 0 0 Z " fill="#FEFEFE" transform="translate(3433.5546875,1774.30859375)"/>
</svg>
